# xmcd CD database file
#
# Track frame offsets:
#	150
#	19483
#	39253
#	60916
#	85154
#	115610
#	137342
#	155696
#
# Disc length: 2409 seconds
#
# Revision: 0
# Processed by: cddbd v1.5.1PL0 Copyright (c) Steve Scherf et al.
# Submitted via: CDex 1.51
#
DISCID=57096708
DTITLE=danielle gasparro - satisfied mind
DYEAR=2005
DGENRE=Jazz
TTITLE0=wednesday afternoon
TTITLE1=fragile fingers
TTITLE2=can't buy me love
TTITLE3=esperanza
TTITLE4=abstract dance
TTITLE5=pale blue
TTITLE6=all the same
TTITLE7=satisfied mind
EXTD=YEAR: 2005
EXTT0=
EXTT1=
EXTT2=
EXTT3=
EXTT4=
EXTT5=
EXTT6=
EXTT7=
PLAYORDER=
